<svg xmlns="http://www.w3.org/2000/svg" viewBox="0 0 1200 630" role="img" aria-hidden="true">
  <defs>
    <pattern id="paper-grid" width="24" height="24" patternUnits="userSpaceOnUse">
      <path d="M24 0H0V24" fill="none" stroke="#e2d4b9" stroke-width="2"/>
    </pattern>
  </defs>
  <rect width="1200" height="630" fill="#f3ead5"/>
  <rect width="1200" height="630" fill="url(#paper-grid)" opacity="0.8"/>
  <rect x="64" y="70" width="316" height="420" fill="#fff8e8" stroke="#2a241c" stroke-width="8"/>
  <rect x="84" y="92" width="276" height="42" fill="#2a241c"/>
  <rect x="108" y="164" width="116" height="116" fill="#4b7f77"/>
  <rect x="132" y="188" width="68" height="68" fill="#f3ead5"/>
  <rect x="112" y="318" width="220" height="18" fill="#c95e3b"/>
  <rect x="112" y="360" width="168" height="18" fill="#9b6b2f"/>
  <rect x="112" y="402" width="196" height="18" fill="#4b7f77"/>
  <rect x="780" y="92" width="356" height="398" fill="#fff8e8" stroke="#2a241c" stroke-width="8"/>
  <rect x="812" y="126" width="292" height="76" fill="#2a241c"/>
  <rect x="824" y="240" width="92" height="92" fill="#c95e3b"/>
  <rect x="952" y="240" width="92" height="92" fill="#4b7f77"/>
  <rect x="824" y="364" width="220" height="22" fill="#9b6b2f"/>
  <rect x="824" y="410" width="160" height="22" fill="#2a241c"/>
  <rect x="448" y="170" width="256" height="256" fill="#fff8e8" stroke="#2a241c" stroke-width="8"/>
  <rect x="480" y="202" width="192" height="34" fill="#2a241c"/>
  <rect x="480" y="268" width="58" height="58" fill="#c95e3b"/>
  <rect x="568" y="268" width="58" height="58" fill="#4b7f77"/>
  <rect x="480" y="356" width="146" height="18" fill="#9b6b2f"/>
  <rect x="406" y="286" width="34" height="34" fill="#c95e3b"/>
  <rect x="724" y="286" width="34" height="34" fill="#4b7f77"/>
  <path d="M380 300h26M440 300h40M626 300h98M758 300h22" fill="none" stroke="#2a241c" stroke-width="10" stroke-linecap="square"/>
  <rect x="392" y="286" width="14" height="14" fill="#f3ead5"/>
  <rect x="724" y="320" width="14" height="14" fill="#f3ead5"/>
  <rect x="144" y="518" width="80" height="28" fill="#c95e3b"/>
  <rect x="240" y="518" width="80" height="28" fill="#4b7f77"/>
  <rect x="840" y="518" width="80" height="28" fill="#9b6b2f"/>
  <rect x="936" y="518" width="80" height="28" fill="#c95e3b"/>
  <rect x="542" y="488" width="72" height="72" fill="#2a241c"/>
  <rect x="560" y="506" width="36" height="36" fill="#f3ead5"/>
  <rect x="578" y="452" width="14" height="36" fill="#2a241c"/>
</svg>
